<svg xmlns="http://www.w3.org/2000/svg" xmlns:xlink="http://www.w3.org/1999/xlink" viewBox="0 0 95 77.74"><defs><style>.a{fill:none;}.b{opacity:0.8;}.c{clip-path:url(#a);}.d{fill:#fff;}</style><clipPath id="a" transform="translate(-754.33 -5448.25)"><rect class="a" x="754.33" y="5448.25" width="95" height="77.74"/></clipPath></defs><title>icon_8</title><g class="b"><g class="c"><path class="d" d="M764.76,5506.39c2.9-.8,7.9-4.09,7.9-11.52,0-6.65-2.17-9.58-3.33-11.16l-0.14-.2,0-.05a7.38,7.38,0,0,1,.22-3.83,4.6,4.6,0,0,0-.31-2.91c-0.87-1.92-2.5-5.48-1.36-8.17,1.9-4.6,2.69-5,4.82-5.88a4.34,4.34,0,0,0,.59-0.32,11.49,11.49,0,0,1,4.94-1.15,6,6,0,0,1,2.69.56,15.86,15.86,0,0,1,.72-2.23c0.26-.66.54-1.22,0.81-1.81a10.59,10.59,0,0,0-4.22-.83,15.33,15.33,0,0,0-7.26,1.83c-3.46,1.51-4.9,2.9-7.08,8.19-1.89,4.45.36,9.27,1.47,11.7-1.35,5.55.52,7.45,0.52,7.45,1,1.34,2.65,3.29,2.65,8.81,0,6.29-4.84,7.39-4.84,7.39-3.93,1.37-9.17,4.29-9.17,12.93a2.12,2.12,0,0,0,2.16,2.16h9.63a18,18,0,0,1,2-4.32h-9.34c0.65-4.1,3.19-5.65,6-6.64m54.29,0.62s-7.74-1.84-7.74-9.93c0-7.1,3.18-9.6,4.41-11.33,0,0,2.52-2.21.83-9.34,2.81-3.91,3.73-10.27.28-18.13-1.92-4.59-3.62-7.1-6.2-8.57a12.4,12.4,0,0,0-6.15-1.47,18.77,18.77,0,0,0-9.08,2.35c-4.32,1.94-7.22,3.73-9.95,10.53-2.36,5.72.45,11.92,1.83,15-1.69,7.13.65,9.58,0.65,9.58,1.23,1.73,4.41,4.23,4.41,11.33,0,8.08-7.74,9.93-7.74,9.93-4.91,1.77-15.17,5.16-15.17,16.82a2.11,2.11,0,0,0,2.16,2.16h60.46a2.11,2.11,0,0,0,2.16-2.16c0-11.66-10.26-15-15.17-16.82m-45.12,14.66c1-6.08,6.33-8.51,11.77-10.46l0.17-.06a14.51,14.51,0,0,0,10.79-14.06c0-7.54-3.05-11.22-4.7-13.2-0.33-.4-0.72-0.91-0.63-0.8-0.13-.29-0.78-2,0.16-5.92a3.6,3.6,0,0,0-.3-2.86c-1.18-2.65-3.37-7.59-1.73-11.58,2.21-5.52,4.16-6.6,7.71-8.2a4.3,4.3,0,0,0,.6-0.33,14.68,14.68,0,0,1,6.72-1.65,8.08,8.08,0,0,1,4,.91c1.28,0.73,2.51,2.1,4.37,6.54,3.47,7.91,1.27,12.33.16,13.87a4.32,4.32,0,0,0-.7,3.52c0.86,3.62.3,5.15,0.16,5.46l-0.82,1c-1.64,2-4.7,5.66-4.7,13.2a14.51,14.51,0,0,0,10.79,14.06l0.17,0.06c5.44,2,10.77,4.38,11.77,10.46H773.94Zm66.23-19.41s-4.84-1.1-4.84-7.39c0-5.52,1.67-7.47,2.65-8.81,0,0,1.88-1.91.52-7.45,1.11-2.43,3.36-7.25,1.47-11.7-2.18-5.29-3.63-6.68-7.08-8.19a15.34,15.34,0,0,0-7.26-1.83,10.51,10.51,0,0,0-4.35.89,32.06,32.06,0,0,1,1.35,4.15l0.17-.11a5.89,5.89,0,0,1,2.84-.61,11.49,11.49,0,0,1,4.94,1.15,4.28,4.28,0,0,0,.59.32c2.12,0.93,2.92,1.27,4.82,5.88,1.14,2.68-.49,6.25-1.36,8.17a4.6,4.6,0,0,0-.31,2.91,7.36,7.36,0,0,1,.22,3.83l0,0.05-0.15.2c-1.16,1.58-3.33,4.51-3.33,11.16,0,7.43,5,10.72,7.9,11.52,2.76,1,5.3,2.53,6,6.64h-9.34a18.05,18.05,0,0,1,2,4.32h9.63a2.11,2.11,0,0,0,2.16-2.16c0-8.64-5.24-11.56-9.17-12.93" transform="translate(-754.33 -5448.25)"/></g></g></svg>