<svg xmlns="http://www.w3.org/2000/svg" xmlns:xlink="http://www.w3.org/1999/xlink" viewBox="0 0 179 56.29"><defs><style>.a{fill:none;}.b{opacity:0.8;}.c{clip-path:url(#a);}.d{fill:#fff;}</style><clipPath id="a" transform="translate(-197.16 -5337.2)"><rect class="a" x="197.16" y="5337.2" width="178.99" height="56.3"/></clipPath></defs><title>icon_7</title><g class="b"><g class="c"><path class="d" d="M219.51,5357.25v6h14.4a12.77,12.77,0,0,1-3.28,7.59,14.74,14.74,0,0,1-11.12,4.41,16,16,0,0,1,0-32,15.31,15.31,0,0,1,10.85,4.31l4.24-4.24a20.8,20.8,0,0,0-15.08-6.12,22,22,0,1,0,0,44.08c6.56,0,11.51-2.15,15.38-6.17s5.22-9.57,5.22-14.08a19.31,19.31,0,0,0-.32-3.77H219.51Z" transform="translate(-197.16 -5337.2)"/><path class="d" d="M258.11,5352.36a14.23,14.23,0,1,0,14.27,14.23,14,14,0,0,0-14.27-14.23m0,22.84c-4.31,0-8-3.55-8-8.62s3.72-8.62,8-8.62,8,3.5,8,8.62-3.72,8.62-8,8.62" transform="translate(-197.16 -5337.2)"/><path class="d" d="M328.09,5355.54h-0.22a9.86,9.86,0,0,0-7.49-3.18c-7.1,0-13.3,6.19-13.3,14.23s6.2,14.23,13.3,14.23a9.71,9.71,0,0,0,7.49-3.23h0.22v2c0,5.44-2.91,8.35-7.59,8.35a7.89,7.89,0,0,1-7.17-5.07l-5.44,2.25a13.55,13.55,0,0,0,12.61,8.4c7.32,0,13.52-4.31,13.52-14.81v-25.59h-5.93v2.45Zm-7.17,19.66c-4.31,0-7.59-3.67-7.59-8.62s3.28-8.62,7.59-8.62,7.59,3.67,7.59,8.67-3.33,8.57-7.59,8.57" transform="translate(-197.16 -5337.2)"/><path class="d" d="M289.94,5352.36a14.23,14.23,0,1,0,14.28,14.23,14,14,0,0,0-14.28-14.23m0,22.84c-4.31,0-8-3.55-8-8.62s3.72-8.62,8-8.62,8,3.5,8,8.62-3.72,8.62-8,8.62" transform="translate(-197.16 -5337.2)"/><rect class="d" x="141.75" y="0.59" width="6.15" height="43.02"/><path class="d" d="M364,5375.21a7.24,7.24,0,0,1-6.91-4.31l19-7.86-0.64-1.62c-1.17-3.18-4.8-9.06-12.17-9.06s-13.42,5.75-13.42,14.23a13.91,13.91,0,0,0,14.1,14.23,14.19,14.19,0,0,0,11.85-6.29l-4.85-3.23a8.15,8.15,0,0,1-7,3.92m-0.44-17.51a5.63,5.63,0,0,1,5.39,3.13l-12.86,5.31c0-6,4.24-8.45,7.47-8.45" transform="translate(-197.16 -5337.2)"/></g></g></svg>