<svg xmlns="http://www.w3.org/2000/svg" xmlns:xlink="http://www.w3.org/1999/xlink" viewBox="0 0 95 95"><defs><style>.a{fill:none;}.b{opacity:0.8;}.c{clip-path:url(#a);}.d{fill:#fff;}</style><clipPath id="a" transform="translate(-1241.5 -5441.42)"><rect class="a" x="1241.5" y="5441.41" width="95" height="95"/></clipPath></defs><title>icon_9</title><g class="b"><g class="c"><path class="d" d="M1336.5,5469.48a2.12,2.12,0,0,0-.46-1.27l0,0-0.13-.13-0.16-.16-25.61-25.61,0,0a2.12,2.12,0,0,0-1.7-.89h-38.86a2.13,2.13,0,0,0-1.7.89l0,0-25.61,25.61-0.16.16-0.13.13,0,0a2,2,0,0,0,0,2.61l0,0,45.34,64.78,0,0a2.08,2.08,0,0,0,3.31,0l0,0,45.34-64.78,0,0a2.13,2.13,0,0,0,.5-1.34m-28.93-23.75,21.59,21.59h-19.41L1299,5445.73h8.61Zm-13.41,0,10.79,21.59H1273l10.79-21.59h10.31Zm-23.72,0H1279l-10.8,21.59h-19.41Zm-22.63,25.91H1268l15.13,50.41Zm41.2,55.11-16.53-55.11h33.06Zm5.91-4.7,15.12-50.41h20.16Z" transform="translate(-1241.5 -5441.42)"/></g></g></svg>