<svg xmlns="http://www.w3.org/2000/svg" xmlns:xlink="http://www.w3.org/1999/xlink" viewBox="0 0 95 95"><defs><style>.a{fill:none;}.b{clip-path:url(#a);}.c{fill:#5e58fb;}</style><clipPath id="a" transform="translate(-960.39 -4057.59)"><rect class="a" x="960.39" y="4057.59" width="95" height="95"/></clipPath></defs><title>icon_6</title><g class="b"><path class="c" d="M1040.28,4126.69h-28.37a8.6,8.6,0,0,0-16.66,0H975.51a2.16,2.16,0,1,0,0,4.32h19.74a8.6,8.6,0,0,0,16.66,0h28.37a2.16,2.16,0,1,0,0-4.32m-36.71,6.48a4.32,4.32,0,1,1,4.32-4.32,4.32,4.32,0,0,1-4.32,4.32m43.18-75.57H969a8.64,8.64,0,0,0-8.64,8.64V4144a8.64,8.64,0,0,0,8.64,8.64h77.73a8.64,8.64,0,0,0,8.64-8.64v-77.73a8.64,8.64,0,0,0-8.64-8.64m4.32,86.36a4.32,4.32,0,0,1-4.32,4.32H969a4.32,4.32,0,0,1-4.32-4.32v-77.73a4.32,4.32,0,0,1,4.32-4.32h77.73a4.32,4.32,0,0,1,4.32,4.32V4144Zm-10.79-64.77h-37a8.6,8.6,0,0,0-16.66,0h-11.1a2.16,2.16,0,1,0,0,4.32h11.1a8.6,8.6,0,0,0,16.66,0h37a2.16,2.16,0,1,0,0-4.32m-45.34,6.48a4.32,4.32,0,1,1,4.32-4.32,4.32,4.32,0,0,1-4.32,4.32m45.34,17.28h-6.78a8.6,8.6,0,0,0-16.66,0H975.51a2.16,2.16,0,1,0,0,4.32h41.33a8.6,8.6,0,0,0,16.66,0h6.78a2.16,2.16,0,1,0,0-4.32m-15.11,6.47a4.32,4.32,0,1,1,4.32-4.32,4.32,4.32,0,0,1-4.32,4.32" transform="translate(-960.39 -4057.59)"/></g></svg>