<svg xmlns="http://www.w3.org/2000/svg" viewBox="0 0 95 77.73"><defs><style>.a{fill:#5e58fb;}</style></defs><title>icon_3</title><path class="a" d="M502.15,2897.27h-5.87L460.53,2872h0a2.12,2.12,0,0,0-3.12,0h0l-35.75,25.23h-5.87a4.32,4.32,0,0,0-4.32,4.32v4.32a4.32,4.32,0,0,0,4.32,4.32h0.86l7.83,37.23h0a2.13,2.13,0,0,0,2.06,1.65h64.77a2.13,2.13,0,0,0,2.06-1.65h0l7.84-37.23h0.86a4.32,4.32,0,0,0,4.32-4.32v-4.32a4.32,4.32,0,0,0-4.32-4.32M459,2876.11l30,21.16H429Zm-37.91,34.11H435.9l1.36,8.64H422.87Zm2.73,13h14.16l1.36,8.64H425.6Zm4.55,21.59-1.82-8.64H440l1.36,8.64h-13Zm28.48,0H445.67l-1.36-8.64h12.5v8.64Zm0-13H443.62l-1.36-8.64h14.54v8.64Zm0-13H441.58l-1.36-8.64h16.59v8.64Zm15.45,25.91H461.12v-8.64h12.5Zm2-13H461.12v-8.64h14.54Zm-13.18-13v-8.64h16.59l-1.36,8.64H461.12Zm28.48,25.91h-13l1.36-8.64h13.48Zm2.73-13H478.63l1.36-8.64h14.16Zm2.73-13H480.67l1.36-8.64h14.84Zm7.09-13H415.78v-4.32h86.36v4.32Z" transform="translate(-411.46 -2871.36)"/></svg>