<svg xmlns="http://www.w3.org/2000/svg" viewBox="0 0 95 95"><defs><style>.a{fill:#5e58fb;}</style></defs><title>icon_2</title><path class="a" d="M463.47,2590.25a13,13,0,1,0,13,13,13,13,0,0,0-13-13m0,21.59a8.64,8.64,0,1,1,8.64-8.64,8.64,8.64,0,0,1-8.64,8.64m0-38.86a30.23,30.23,0,1,0,30.23,30.23A30.23,30.23,0,0,0,463.47,2573m0,56.14a25.91,25.91,0,1,1,25.91-25.91,25.91,25.91,0,0,1-25.91,25.91m32.9,8.31a47.5,47.5,0,1,0-65.8,0l-5.33,9.6a2.16,2.16,0,1,0,3.05,3.05,2.13,2.13,0,0,0,.51-0.91l5-8.92a47.39,47.39,0,0,0,59.42,0l5,8.92a2.13,2.13,0,0,0,2,1.55,2.16,2.16,0,0,0,1.53-3.69Zm-32.9,9a43.18,43.18,0,1,1,43.18-43.18,43.18,43.18,0,0,1-43.18,43.18" transform="translate(-415.97 -2555.7)"/></svg>