<svg xmlns="http://www.w3.org/2000/svg" viewBox="0 0 95 77.73"><defs><style>.a{fill:#5e58fb;}</style></defs><title>icon_1</title><path class="a" d="M427.1,2297.35h-13a2.16,2.16,0,0,0-2.16,2.16v25.91a2.16,2.16,0,0,0,2.16,2.16h13a2.16,2.16,0,0,0,2.16-2.16v-25.91a2.16,2.16,0,0,0-2.16-2.16m-2.16,25.91h-8.64v-21.59h8.64v21.59Zm79.89-73.41h-13a2.16,2.16,0,0,0-2.16,2.16v73.41a2.16,2.16,0,0,0,2.16,2.16h13a2.16,2.16,0,0,0,2.16-2.16V2252a2.16,2.16,0,0,0-2.16-2.16m-2.16,73.41H494v-69.09h8.64v69.09ZM453,2258.48h-13a2.16,2.16,0,0,0-2.16,2.16v64.77a2.16,2.16,0,0,0,2.16,2.16h13a2.16,2.16,0,0,0,2.16-2.16v-64.77a2.16,2.16,0,0,0-2.16-2.16m-2.16,64.77h-8.64V2262.8h8.64v60.45Zm28.07-38.86H466a2.16,2.16,0,0,0-2.16,2.16v38.86a2.16,2.16,0,0,0,2.16,2.16h13a2.16,2.16,0,0,0,2.16-2.16v-38.86a2.16,2.16,0,0,0-2.16-2.16m-2.16,38.86h-8.64v-34.54h8.64v34.54Z" transform="translate(-411.99 -2249.85)"/></svg>