<svg xmlns="http://www.w3.org/2000/svg" viewBox="0 0 95 95"><defs><style>.a{fill:#5e58fb;}</style></defs><title>icon_4</title><path class="a" d="M587,4083.5h8.64a8.64,8.64,0,0,0,8.64-8.64v-8.64a8.64,8.64,0,0,0-8.64-8.64H587a8.64,8.64,0,0,0-8.64,8.64v8.64a8.64,8.64,0,0,0,8.64,8.64m-4.32-17.27a4.32,4.32,0,0,1,4.32-4.32h8.64a4.32,4.32,0,0,1,4.32,4.32v8.64a4.32,4.32,0,0,1-4.32,4.32H587a4.32,4.32,0,0,1-4.32-4.32v-8.64Zm13,60.45H587a8.64,8.64,0,0,0-8.64,8.64V4144a8.64,8.64,0,0,0,8.64,8.64h8.64a8.64,8.64,0,0,0,8.64-8.64v-8.64a8.64,8.64,0,0,0-8.64-8.64m4.32,17.27a4.32,4.32,0,0,1-4.32,4.32H587a4.32,4.32,0,0,1-4.32-4.32v-8.64A4.32,4.32,0,0,1,587,4131h8.64a4.32,4.32,0,0,1,4.32,4.32V4144Zm-43.18-21.59a2.16,2.16,0,0,0,2.16-2.16v-15.11h30.23v15.11a2.16,2.16,0,1,0,4.32,0v-15.11H623.7v15.11a2.16,2.16,0,0,0,4.32,0v-17.27a2.16,2.16,0,0,0-2.16-2.16H593.47V4090a2.16,2.16,0,1,0-4.32,0v10.79H556.77a2.16,2.16,0,0,0-2.16,2.16v17.27a2.16,2.16,0,0,0,2.16,2.16m4.32,4.32h-8.64a8.64,8.64,0,0,0-8.64,8.64V4144a8.64,8.64,0,0,0,8.64,8.64h8.64a8.64,8.64,0,0,0,8.64-8.64v-8.64a8.64,8.64,0,0,0-8.64-8.64M565.4,4144a4.32,4.32,0,0,1-4.32,4.32h-8.64a4.32,4.32,0,0,1-4.32-4.32v-8.64a4.32,4.32,0,0,1,4.32-4.32h8.64a4.32,4.32,0,0,1,4.32,4.32V4144Zm64.77-17.27h-8.64a8.64,8.64,0,0,0-8.64,8.64V4144a8.64,8.64,0,0,0,8.64,8.64h8.64a8.64,8.64,0,0,0,8.64-8.64v-8.64a8.64,8.64,0,0,0-8.64-8.64m4.32,17.27a4.32,4.32,0,0,1-4.32,4.32h-8.64a4.32,4.32,0,0,1-4.32-4.32v-8.64a4.32,4.32,0,0,1,4.32-4.32h8.64a4.32,4.32,0,0,1,4.32,4.32V4144Z" transform="translate(-543.81 -4057.59)"/></svg>