<svg xmlns="http://www.w3.org/2000/svg" xmlns:xlink="http://www.w3.org/1999/xlink" viewBox="0 0 95 95"><defs><style>.a{fill:none;}.b{clip-path:url(#a);}.c{fill:#5e58fb;}</style><clipPath id="a" transform="translate(-762.56 -4057.59)"><rect class="a" x="762.56" y="4057.59" width="95" height="95"/></clipPath></defs><title>icon_5</title><g class="b"><path class="c" d="M842.45,4100.78H825.17a2.16,2.16,0,1,0,0,4.32h17.27a2.16,2.16,0,0,0,0-4.32m-8.64-8.64a2.16,2.16,0,1,0-2.16-2.16,2.16,2.16,0,0,0,2.16,2.16m8.64,0a2.16,2.16,0,1,0-2.16-2.16,2.16,2.16,0,0,0,2.16,2.16m0,17.28H825.17a2.16,2.16,0,1,0,0,4.32h17.27a2.16,2.16,0,1,0,0-4.32m-58.3-38.87h66.93a2.16,2.16,0,0,0,0-4.32H784.15a2.16,2.16,0,0,0,0,4.32m6.48-8.64h56.14a2.16,2.16,0,1,0,0-4.32H790.63a2.16,2.16,0,0,0,0,4.32m51.82,56.14H825.17a2.16,2.16,0,1,0,0,4.32h17.27a2.16,2.16,0,1,0,0-4.32m-51.82-25.91a2.16,2.16,0,1,0-2.16-2.16,2.16,2.16,0,0,0,2.16,2.16m0,38.86h51.82a2.16,2.16,0,1,0,0-4.32H790.63a2.16,2.16,0,1,0,0,4.32m0,8.64h51.82a2.16,2.16,0,1,0,0-4.32H790.63a2.16,2.16,0,0,0,0,4.32m62.61-64.77H779.83a4.32,4.32,0,0,0-4.32,4.32v8.64h-8.64a4.32,4.32,0,0,0-4.32,4.32v47.5a13,13,0,0,0,13,13h77.73a4.32,4.32,0,0,0,4.32-4.32v-69.09a4.32,4.32,0,0,0-4.32-4.32m0,73.41H775.52a8.64,8.64,0,0,1-8.64-8.64v-47.5h8.64v45.34a2.16,2.16,0,1,0,4.32,0v-58.29h73.41v69.09Zm-45.34-56.14h17.27a2.16,2.16,0,1,0,0-4.32H807.9a2.16,2.16,0,0,0,0,4.32m-17.27,30.23h21.59a2.16,2.16,0,0,0,2.16-2.16v-17.27a2.16,2.16,0,0,0-2.16-2.16H790.63a2.16,2.16,0,0,0-2.16,2.16v17.27a2.16,2.16,0,0,0,2.16,2.16m2.16-17.27h17.27v13H792.79v-13Zm6.48-13a2.16,2.16,0,1,0-2.16-2.16,2.16,2.16,0,0,0,2.16,2.16" transform="translate(-762.56 -4057.59)"/></g></svg>