<svg xmlns="http://www.w3.org/2000/svg" xmlns:xlink="http://www.w3.org/1999/xlink" viewBox="0 0 44 30"><defs><style>.a{fill:none;}.b{clip-path:url(#a);}.c{fill:#00a14b;}</style><clipPath id="a" transform="translate(-1314.68 -1166.1)"><rect class="a" width="1600" height="7790.71"/></clipPath></defs><title>ok</title><g class="b"><path class="c" d="M1358.68,1167.1a1,1,0,0,0-1-1,1,1,0,0,0-.72.31h0l-26.29,27.26-14.28-14.28a1,1,0,1,0-1.41,1.41l15,15a1,1,0,0,0,.71.29,1,1,0,0,0,.72-0.31h0l27-28h0a1,1,0,0,0,.28-0.69" transform="translate(-1314.68 -1166.1)"/></g></svg>